<?xml version="1.0" encoding="utf-8"?>
<svg viewBox="-395.397 -634.65 2076.551 2124.402" xmlns="http://www.w3.org/2000/svg">
  <linearGradient id="SVGID_4_" gradientUnits="userSpaceOnUse" x1="92.1341" y1="2809.2937" x2="1805.786" y2="2809.2937" gradientTransform="matrix(1, 0, 0, -1, -442.208466, 3059.390442)">
    <stop offset="0" style="stop-color:#7B4CD6"/>
    <stop offset="1" style="stop-color:#443951"/>
  </linearGradient>
  <g transform="matrix(1, 0, 0, 1, -442.20846557617193, -780.6095581054688)">
    <linearGradient id="SVGID_1_" gradientUnits="userSpaceOnUse" x1="510.7647" y1="3128.3743" x2="837.0699" y2="3128.3743" gradientTransform="matrix(1 0 0 -1 0 3840)">
      <stop offset="0" style="stop-color:#443951"/>
      <stop offset="1" style="stop-color:#7B4CD6"/>
    </linearGradient>
    <path class="st0" d="M837.1,752.3V671c0-7.7-6-13.7-13.7-13.7h-95V562c0-7.3-6.3-13.3-13.7-13.3h-81.7c-7.3,0-13.7,6-13.7,13.3 v95.3h-95c-7.7,0-13.7,6-13.7,13.7v81.3c0,7.7,6,13.7,13.7,13.7h95v95.3c0,7.3,6.3,13.3,13.7,13.3h81.7c7.3,0,13.7-6,13.7-13.3V766 h95C831.1,766,837.1,759.9,837.1,752.3L837.1,752.3z" style="clip-rule: evenodd; fill: url('#SVGID_1_'); fill-rule: evenodd;"/>
    <path class="st1" d="M837.1,752.3l-108.7-95V562c0-7.3-6.3-13.3-13.7-13.3h-81.7c-7.3,0-13.7,6-13.7,13.3v95.3h-95 c-7.7,0-13.7,6-13.7,13.7v81.3c0,7.7,6,13.7,13.7,13.7h95v95.3c0,7.3,6.3,13.3,13.7,13.3h81.7c7.3,0,13.7-6,13.7-13.3V766h95 C831.1,766,837.1,759.9,837.1,752.3L837.1,752.3z" style="clip-rule: evenodd; fill: rgb(255, 255, 255); fill-rule: evenodd; opacity: 0.15;"/>
    <g>
      <g>
        <linearGradient id="SVGID_2_" gradientUnits="userSpaceOnUse" x1="1009.7299" y1="3128.3845" x2="1143.0779" y2="3128.3845" gradientTransform="matrix(1 0 0 -1 0 3840)">
          <stop offset="0" style="stop-color:#443951"/>
          <stop offset="1" style="stop-color:#7B4CD6"/>
        </linearGradient>
        <path class="st2" d="M1009.7,711.6c0,36.7,30,66.7,66.7,66.7c37,0,66.7-30,66.7-66.7s-29.7-66.7-66.7-66.7 C1039.7,645,1009.7,675,1009.7,711.6L1009.7,711.6z" style="clip-rule: evenodd; fill: url('#SVGID_2_'); fill-rule: evenodd;"/>
        <path class="st1" d="M1009.7,711.6c0,36.7,30,66.7,66.7,66.7c37,0,66.7-30,66.7-66.7s-29.7-66.7-66.7-66.7 C1039.7,645,1009.7,675,1009.7,711.6L1009.7,711.6z" style="clip-rule: evenodd; fill: rgb(255, 255, 255); fill-rule: evenodd; opacity: 0.15;"/>
      </g>
      <path class="st3" d="M1202.7,651.9c37,0,66.7-30,66.7-66.7c0-36.7-29.7-66.7-66.7-66.7c-36.7,0-66.7,30-66.7,66.7 C1136.1,622,1166.1,651.9,1202.7,651.9L1202.7,651.9z" style="clip-rule: evenodd; fill: rgb(255, 255, 255); fill-rule: evenodd;"/>
      <g>
        <linearGradient id="SVGID_3_" gradientUnits="userSpaceOnUse" x1="1262.3987" y1="3128.3845" x2="1395.7465" y2="3128.3845" gradientTransform="matrix(1 0 0 -1 0 3840)">
          <stop offset="0" style="stop-color:#443951"/>
          <stop offset="1" style="stop-color:#7B4CD6"/>
        </linearGradient>
        <path class="st4" d="M1262.4,711.6c0,36.7,30,66.7,66.7,66.7c37,0,66.7-30,66.7-66.7s-29.7-66.7-66.7-66.7 C1292.4,645,1262.4,675,1262.4,711.6L1262.4,711.6z" style="clip-rule: evenodd; fill: url('#SVGID_3_'); fill-rule: evenodd;"/>
        <path class="st1" d="M1262.4,711.6c0,36.7,30,66.7,66.7,66.7c37,0,66.7-30,66.7-66.7s-29.7-66.7-66.7-66.7 C1292.4,645,1262.4,675,1262.4,711.6L1262.4,711.6z" style="clip-rule: evenodd; fill: rgb(255, 255, 255); fill-rule: evenodd; opacity: 0.15;"/>
      </g>
      <path class="st3" d="M1202.7,771.3c-36.7,0-66.7,30-66.7,66.7s30,66.7,66.7,66.7c37,0,66.7-30,66.7-66.7 C1269.4,801.3,1239.7,771.3,1202.7,771.3L1202.7,771.3z" style="clip-rule: evenodd; fill: rgb(255, 255, 255); fill-rule: evenodd;"/>
    </g>
  </g>
  <path class="st5" d="M 1340.592 -478.81 L 1253.992 -565.41 C 1239.292 -580.11 1219.292 -588.41 1198.592 -588.41 L 41.292 -588.41 L -53.208 -511.61 L -299.208 -511.61 L -299.208 -482.91 L -88.508 -482.91 L -105.808 -468.91 L -350.108 -468.91 L -350.108 -440.21 L -97.908 -440.21 L -81.108 -426.21 L -299.208 -426.21 L -299.208 -397.51 L -46.808 -397.51 L 41.692 -323.41 L 1020.192 -323.41 C 1063.492 -323.41 1098.592 -288.31 1098.592 -245.01 L 1098.592 103.59 C 1098.592 146.89 1063.492 181.99 1020.192 181.99 L 233.492 181.99 C 212.692 181.99 192.792 190.29 178.092 204.99 L 91.492 291.59 C 76.792 306.29 68.492 326.29 68.492 346.99 L 68.492 986.99 C 68.492 1007.09 80.992 1034.19 96.492 1046.99 C 207.692 1139.69 333.592 1062.49 333.592 955.89 L 333.592 525.29 C 333.592 481.99 368.692 446.89 411.992 446.89 L 1198.592 446.89 C 1219.392 446.89 1239.292 438.59 1253.992 423.89 L 1340.592 337.29 C 1355.292 322.59 1363.592 302.59 1363.592 281.89 L 1363.592 -423.41 C 1363.592 -444.11 1355.292 -464.11 1340.592 -478.81 Z" style="fill: url('#SVGID_4_');" transform="matrix(1, 0, 0, 1, -1.1368683772161603e-13, 0)"/>
  <g transform="matrix(1, 0, 0, 1, -442.20846557617193, -780.6095581054688)">
    <radialGradient id="SVGID_5_" cx="1319.4529" cy="2263.1809" r="361.1744" gradientTransform="matrix(1 0 0 -1 0 3840)" gradientUnits="userSpaceOnUse">
      <stop offset="0" style="stop-color:#7B4CD6"/>
      <stop offset="1" style="stop-color:#443951"/>
    </radialGradient>
    <path class="st6" d="M1658.9,1868.3c-44.2,0-80-35.8-80-80v-251.5L1377,1738.8h-113.1L1060,1534.9v253.4c0,44.2-35.8,80-80,80 c-44.2,0-80-35.8-80-80v-446.5l136.5-56.6l283.8,283.8l281.9-281.9l136.5,56.6v444.5C1738.9,1832.5,1703.1,1868.3,1658.9,1868.3z" style="fill: url('#SVGID_5_');"/>
    <linearGradient id="SVGID_6_" gradientUnits="userSpaceOnUse" x1="1578.9111" y1="2233.926" x2="1738.8879" y2="2233.926" gradientTransform="matrix(1 0 0 -1 0 3840)">
      <stop offset="0" style="stop-color:#7B4CD6"/>
      <stop offset="0.1358" style="stop-color:#784BCE"/>
      <stop offset="0.3449" style="stop-color:#6F48B9"/>
      <stop offset="0.6012" style="stop-color:#604395"/>
      <stop offset="0.8922" style="stop-color:#4C3C65"/>
      <stop offset="1" style="stop-color:#443951"/>
    </linearGradient>
    <path class="st7" d="M1738.9,1343.8v444.5c0,44.2-35.8,80-80,80s-80-35.8-80-80v-251.5L1738.9,1343.8z" style="fill: url('#SVGID_6_');"/>
    <linearGradient id="SVGID_7_" gradientUnits="userSpaceOnUse" x1="1061.3627" y1="2404.9988" x2="848.0266" y2="2035.4901" gradientTransform="matrix(1 0 0 -1 0 3840)">
      <stop offset="0" style="stop-color:#7B4CD6"/>
      <stop offset="0.1358" style="stop-color:#784BCE"/>
      <stop offset="0.3449" style="stop-color:#6F48B9"/>
      <stop offset="0.6012" style="stop-color:#604395"/>
      <stop offset="0.8922" style="stop-color:#4C3C65"/>
      <stop offset="1" style="stop-color:#443951"/>
    </linearGradient>
    <path class="st8" d="M1060,1535v253.4c0,44.2-35.8,80-80,80c-44.2,0-80-35.8-80-80v-446.5L1060,1535z" style="fill: url('#SVGID_7_');"/>
  </g>
  <path d="M 1469.505 768.243 C 1403.309 1142.213 1285.093 1384.933 1248.851 1445.375 C 1212.609 1505.817 1242.417 1088.409 1030.955 768.243 C 819.493 448.077 1129.745 91.111 1251.609 91.111 C 1373.473 91.111 1535.701 394.273 1469.505 768.243 Z" style="stroke: rgb(17, 143, 255); paint-order: fill; fill: rgb(104, 169, 246);" transform="matrix(-1, 0, 0, -1, 2500.639893, 1536.485718)"/>
  <path stroke="rgb(255,0,0)" stroke-width="0" d="M 1271.783 1163.877 C 1275.853 1204.934 1274.422 1227.225 1271.783 1246.986 C 1270.021 1260.181 1269.47 1270.7 1262.968 1275.948 C 1256.463 1281.2 1242.174 1281.798 1232.747 1278.467 C 1222.298 1274.775 1213.926 1266.823 1203.785 1252.023 C 1187.424 1228.146 1161.977 1178.567 1150.897 1133.656 C 1138.499 1083.401 1136.668 1010.229 1138.305 962.401 C 1139.108 938.926 1142.853 912.578 1146.71 892.756 C 1146.942 888.193 1147.489 883.579 1148.379 879.292 C 1149.134 875.658 1150.48 871.332 1152.212 866.648 C 1152.529 861.876 1152.929 857.618 1153.416 854.108 C 1155.336 840.276 1159.248 828.724 1162.827 823.522 C 1163.002 821.785 1163.221 820.215 1163.489 818.849 C 1165.13 810.481 1169.508 805.404 1172.304 802.479 C 1173.164 801.579 1173.793 801.032 1174.515 800.67 C 1175.971 798.199 1177.388 796.198 1178.6 794.924 C 1180.597 792.825 1181.764 792.697 1184.182 792.473 C 1184.606 791.197 1185.249 790.794 1186.156 789.887 C 1188.326 786.943 1189.403 787.663 1192.349 787.379 C 1192.383 787.376 1192.418 787.372 1192.452 787.369 C 1192.489 787.365 1192.526 787.361 1192.564 787.357 C 1196.325 786.952 1203.449 784.322 1208.664 787.477 C 1210.841 787.937 1212.7 788.694 1213.859 789.887 C 1215.85 791.938 1216.443 794.758 1216.553 798.401 C 1217.492 798.808 1218.294 799.32 1218.895 799.961 C 1222.912 804.245 1221.689 812.709 1221.414 823.886 C 1221.396 824.608 1221.377 825.382 1221.356 826.204 C 1222.486 834.275 1223.455 843.165 1224.339 852.458 C 1244.739 930.169 1265.827 1103.794 1271.783 1163.877 Z" style="stroke: rgb(129, 151, 57); stroke-width: 2px; fill: rgb(255, 255, 255);" transform="matrix(1, 0, 0, 1, -1.1368683772161603e-13, 0)"/>
</svg>